<?xml version="1.0" encoding="UTF-8" standalone="no"?>
<!-- Generator: Adobe Illustrator 13.0.1, SVG Export Plug-In . SVG Version: 6.00 Build 14948)  -->
<svg
   xmlns:dc="http://purl.org/dc/elements/1.1/"
   xmlns:cc="http://web.resource.org/cc/"
   xmlns:rdf="http://www.w3.org/1999/02/22-rdf-syntax-ns#"
   xmlns:svg="http://www.w3.org/2000/svg"
   xmlns="http://www.w3.org/2000/svg"
   xmlns:sodipodi="http://sodipodi.sourceforge.net/DTD/sodipodi-0.dtd"
   xmlns:inkscape="http://www.inkscape.org/namespaces/inkscape"
   version="1.0"
   id="Layer_1"
   x="0px"
   y="0px"
   width="266"
   height="67"
   viewBox="0 0 265.064 66.767"
   enable-background="new 0 0 265.064 66.767"
   xml:space="preserve"
   sodipodi:version="0.32"
   inkscape:version="0.45.1"
   sodipodi:docname="Linamar_Corporation.svg"
   inkscape:output_extension="org.inkscape.output.svg.inkscape"
   sodipodi:docbase="C:\Documents and Settings\Mendaliv\Desktop"><metadata
   id="metadata66"><rdf:RDF><cc:Work
       rdf:about=""><dc:format>image/svg+xml</dc:format><dc:type
         rdf:resource="http://purl.org/dc/dcmitype/StillImage" /></cc:Work></rdf:RDF></metadata><defs
   id="defs64" /><sodipodi:namedview
   inkscape:window-height="579"
   inkscape:window-width="748"
   inkscape:pageshadow="2"
   inkscape:pageopacity="0.0"
   guidetolerance="10.0"
   gridtolerance="10.0"
   objecttolerance="10.0"
   borderopacity="1.0"
   bordercolor="#666666"
   pagecolor="#ffffff"
   id="base"
   width="266px"
   height="67px"
   inkscape:zoom="2.5050554"
   inkscape:cx="132.532"
   inkscape:cy="33.383499"
   inkscape:window-x="198"
   inkscape:window-y="207"
   inkscape:current-layer="Layer_1" />
<g
   id="g3"
   transform="matrix(0.9965224,0,0,0.9965224,-5.4776119e-3,0.2331854)">
	<g
   id="g5">
		<path
   d="M 170.675,56.873 C 171.176,56.873 171.597,56.957 171.939,57.125 C 172.281,57.294 172.556,57.515 172.766,57.788 C 172.975,58.061 173.125,58.373 173.217,58.724 C 173.307,59.075 173.354,59.432 173.354,59.796 C 173.354,60.297 173.278,60.734 173.127,61.107 C 172.977,61.481 172.768,61.786 172.498,62.023 C 172.23,62.259 171.904,62.437 171.521,62.556 C 171.138,62.675 170.714,62.733 170.25,62.733 L 169.198,62.733 L 169.198,66.627 L 167.231,66.627 L 167.231,56.874 L 170.675,56.874 L 170.675,56.873 z M 170.074,61.288 C 170.465,61.288 170.782,61.169 171.023,60.932 C 171.265,60.695 171.386,60.326 171.386,59.823 C 171.386,59.33 171.281,58.956 171.071,58.701 C 170.861,58.446 170.51,58.318 170.019,58.318 L 169.199,58.318 L 169.199,61.288 L 170.074,61.288 L 170.074,61.288 z "
   id="path7"
   style="fill:#bb6a3c" />
		<path
   d="M 173.93,61.278 C 174.031,60.796 174.195,60.393 174.422,60.07 C 174.651,59.747 174.948,59.501 175.318,59.333 C 175.687,59.165 176.14,59.08 176.679,59.08 C 177.244,59.071 177.713,59.146 178.087,59.305 C 178.46,59.464 178.758,59.708 178.976,60.035 C 179.197,60.363 179.35,60.768 179.442,61.25 C 179.533,61.732 179.579,62.297 179.579,62.942 C 179.579,63.57 179.529,64.126 179.429,64.608 C 179.329,65.09 179.164,65.493 178.936,65.816 C 178.708,66.139 178.411,66.379 178.04,66.533 C 177.671,66.688 177.217,66.765 176.68,66.765 C 176.114,66.774 175.644,66.703 175.27,66.553 C 174.897,66.403 174.6,66.166 174.381,65.844 C 174.162,65.521 174.007,65.116 173.916,64.629 C 173.824,64.142 173.779,63.58 173.779,62.942 C 173.779,62.316 173.83,61.761 173.93,61.278 z M 175.693,63.98 C 175.711,64.298 175.755,64.571 175.823,64.798 C 175.891,65.026 175.994,65.203 176.131,65.33 C 176.268,65.457 176.451,65.521 176.68,65.521 C 177.063,65.521 177.328,65.321 177.473,64.921 C 177.62,64.521 177.694,63.861 177.694,62.942 C 177.694,62.023 177.621,61.364 177.473,60.963 C 177.328,60.563 177.063,60.362 176.68,60.362 C 176.451,60.362 176.268,60.426 176.131,60.553 C 175.994,60.68 175.892,60.858 175.823,61.085 C 175.755,61.313 175.711,61.585 175.693,61.904 C 175.674,62.222 175.666,62.568 175.666,62.941 C 175.666,63.314 175.675,63.662 175.693,63.98 z "
   id="path9"
   style="fill:#bb6a3c" />
		<path
   d="M 182.078,59.281 L 182.937,64.496 L 182.965,64.496 L 183.88,59.281 L 185.931,59.281 L 186.901,64.496 L 186.929,64.496 L 187.817,59.281 L 189.621,59.281 L 188.036,66.626 L 185.89,66.626 L 184.919,61.411 L 184.892,61.411 L 183.976,66.626 L 181.79,66.626 L 180.19,59.281 L 182.078,59.281 L 182.078,59.281 z "
   id="path11"
   style="fill:#bb6a3c" />
		<path
   d="M 192.105,63.82 C 192.105,64.038 192.121,64.249 192.152,64.453 C 192.184,64.658 192.236,64.839 192.309,64.998 C 192.382,65.157 192.478,65.284 192.596,65.379 C 192.714,65.475 192.861,65.522 193.034,65.522 C 193.352,65.522 193.584,65.408 193.729,65.179 C 193.875,64.951 193.975,64.603 194.03,64.137 L 195.725,64.137 C 195.688,64.995 195.459,65.648 195.041,66.095 C 194.621,66.542 193.961,66.766 193.06,66.766 C 192.376,66.766 191.843,66.652 191.461,66.425 C 191.078,66.197 190.795,65.897 190.613,65.524 C 190.43,65.151 190.318,64.732 190.278,64.268 C 190.236,63.804 190.216,63.34 190.216,62.875 C 190.216,62.384 190.249,61.911 190.319,61.455 C 190.386,61 190.523,60.595 190.729,60.24 C 190.933,59.885 191.228,59.603 191.611,59.394 C 191.994,59.184 192.504,59.08 193.142,59.08 C 193.689,59.08 194.138,59.169 194.488,59.347 C 194.84,59.525 195.115,59.775 195.316,60.098 C 195.516,60.422 195.653,60.813 195.726,61.273 C 195.798,61.733 195.835,62.246 195.835,62.81 L 195.835,63.234 L 192.103,63.234 L 192.103,63.82 L 192.105,63.82 z M 193.977,61.367 C 193.95,61.153 193.903,60.971 193.834,60.821 C 193.766,60.671 193.669,60.557 193.547,60.48 C 193.424,60.403 193.267,60.364 193.075,60.364 C 192.883,60.364 192.726,60.407 192.603,60.494 C 192.48,60.581 192.382,60.694 192.309,60.835 C 192.236,60.976 192.184,61.133 192.152,61.306 C 192.121,61.479 192.105,61.652 192.105,61.824 L 192.105,62.111 L 194.031,62.111 C 194.022,61.829 194.004,61.581 193.977,61.367 z "
   id="path13"
   style="fill:#bb6a3c" />
		<path
   d="M 198.888,59.281 L 198.888,60.257 L 198.914,60.257 C 199.105,59.902 199.336,59.616 199.609,59.402 C 199.882,59.188 200.216,59.08 200.607,59.08 C 200.663,59.08 200.719,59.082 200.778,59.085 C 200.838,59.088 200.894,59.094 200.949,59.1 L 200.949,60.906 C 200.849,60.9 200.752,60.894 200.655,60.891 C 200.56,60.888 200.463,60.886 200.361,60.886 C 200.197,60.886 200.034,60.909 199.87,60.954 C 199.706,61 199.556,61.075 199.419,61.18 C 199.282,61.284 199.173,61.421 199.091,61.59 C 199.009,61.758 198.968,61.965 198.968,62.212 L 198.968,66.626 L 197.082,66.626 L 197.082,59.281 L 198.888,59.281 L 198.888,59.281 z "
   id="path15"
   style="fill:#bb6a3c" />
		<path
   d="M 207.768,57.174 L 207.768,59.281 L 208.862,59.281 L 208.862,60.566 L 207.768,60.566 L 207.768,64.538 C 207.768,64.829 207.811,65.036 207.899,65.159 C 207.985,65.282 208.165,65.343 208.438,65.343 C 208.51,65.343 208.584,65.341 208.657,65.336 C 208.73,65.331 208.798,65.325 208.862,65.315 L 208.862,66.626 C 208.652,66.626 208.449,66.632 208.254,66.646 C 208.058,66.659 207.851,66.666 207.632,66.666 C 207.268,66.666 206.97,66.641 206.737,66.591 C 206.504,66.541 206.327,66.441 206.204,66.291 C 206.081,66.141 205.996,65.943 205.95,65.698 C 205.905,65.452 205.882,65.143 205.882,64.77 L 205.882,60.566 L 204.927,60.566 L 204.927,59.281 L 205.882,59.281 L 205.882,57.174 L 207.768,57.174 L 207.768,57.174 z "
   id="path17"
   style="fill:#bb6a3c" />
		<path
   d="M 209.963,61.278 C 210.064,60.796 210.227,60.393 210.455,60.07 C 210.684,59.747 210.982,59.501 211.351,59.333 C 211.721,59.165 212.174,59.08 212.712,59.08 C 213.277,59.071 213.748,59.146 214.121,59.305 C 214.495,59.464 214.791,59.708 215.011,60.035 C 215.229,60.363 215.385,60.768 215.476,61.25 C 215.567,61.732 215.613,62.297 215.613,62.942 C 215.613,63.57 215.563,64.126 215.463,64.608 C 215.363,65.09 215.198,65.493 214.971,65.816 C 214.742,66.139 214.444,66.379 214.075,66.533 C 213.706,66.688 213.252,66.765 212.714,66.765 C 212.149,66.774 211.679,66.703 211.305,66.553 C 210.932,66.403 210.635,66.166 210.416,65.844 C 210.197,65.521 210.042,65.116 209.951,64.629 C 209.86,64.142 209.814,63.58 209.814,62.942 C 209.813,62.316 209.862,61.761 209.963,61.278 z M 211.726,63.98 C 211.745,64.298 211.789,64.571 211.857,64.798 C 211.925,65.026 212.028,65.203 212.166,65.33 C 212.303,65.457 212.485,65.521 212.713,65.521 C 213.097,65.521 213.361,65.321 213.508,64.921 C 213.654,64.521 213.727,63.861 213.727,62.942 C 213.727,62.023 213.654,61.364 213.508,60.963 C 213.362,60.563 213.097,60.362 212.713,60.362 C 212.485,60.362 212.303,60.426 212.166,60.553 C 212.028,60.68 211.926,60.858 211.857,61.085 C 211.789,61.313 211.745,61.585 211.726,61.904 C 211.708,62.222 211.7,62.568 211.7,62.941 C 211.7,63.314 211.708,63.662 211.726,63.98 z "
   id="path19"
   style="fill:#bb6a3c" />
		<path
   d="M 223.944,56.873 C 224.445,56.873 224.866,56.957 225.208,57.125 C 225.549,57.294 225.825,57.515 226.034,57.788 C 226.244,58.061 226.394,58.373 226.485,58.724 C 226.576,59.075 226.622,59.432 226.622,59.796 C 226.622,60.297 226.547,60.734 226.397,61.107 C 226.247,61.481 226.037,61.786 225.768,62.023 C 225.498,62.259 225.173,62.437 224.79,62.556 C 224.407,62.675 223.984,62.733 223.519,62.733 L 222.466,62.733 L 222.466,66.627 L 220.499,66.627 L 220.499,56.874 L 223.944,56.874 L 223.944,56.873 z M 223.343,61.288 C 223.736,61.288 224.052,61.169 224.293,60.932 C 224.534,60.695 224.655,60.326 224.655,59.823 C 224.655,59.33 224.551,58.956 224.342,58.701 C 224.131,58.446 223.78,58.318 223.288,58.318 L 222.468,58.318 L 222.468,61.288 L 223.343,61.288 L 223.343,61.288 z "
   id="path21"
   style="fill:#bb6a3c" />
		<path
   d="M 228.915,63.82 C 228.915,64.038 228.931,64.249 228.963,64.453 C 228.995,64.658 229.048,64.839 229.12,64.998 C 229.193,65.157 229.288,65.284 229.407,65.379 C 229.525,65.475 229.671,65.522 229.844,65.522 C 230.162,65.522 230.396,65.408 230.541,65.179 C 230.687,64.951 230.787,64.603 230.842,64.137 L 232.537,64.137 C 232.5,64.995 232.272,65.648 231.853,66.095 C 231.433,66.542 230.773,66.766 229.871,66.766 C 229.187,66.766 228.655,66.652 228.272,66.425 C 227.889,66.197 227.607,65.897 227.424,65.524 C 227.241,65.151 227.13,64.732 227.089,64.268 C 227.049,63.804 227.027,63.34 227.027,62.875 C 227.027,62.384 227.062,61.911 227.13,61.455 C 227.199,61 227.336,60.595 227.54,60.24 C 227.746,59.885 228.039,59.603 228.422,59.394 C 228.805,59.184 229.316,59.08 229.953,59.08 C 230.5,59.08 230.949,59.169 231.301,59.347 C 231.652,59.525 231.927,59.775 232.127,60.098 C 232.327,60.422 232.464,60.813 232.537,61.273 C 232.61,61.733 232.646,62.246 232.646,62.81 L 232.646,63.234 L 228.914,63.234 L 228.914,63.82 L 228.915,63.82 z M 230.787,61.367 C 230.76,61.153 230.712,60.971 230.643,60.821 C 230.575,60.671 230.479,60.557 230.356,60.48 C 230.234,60.403 230.076,60.364 229.885,60.364 C 229.694,60.364 229.535,60.407 229.413,60.494 C 229.29,60.58 229.192,60.694 229.119,60.835 C 229.047,60.976 228.994,61.133 228.962,61.306 C 228.93,61.479 228.914,61.652 228.914,61.824 L 228.914,62.111 L 230.841,62.111 C 230.832,61.829 230.814,61.581 230.787,61.367 z "
   id="path23"
   style="fill:#bb6a3c" />
		<path
   d="M 235.697,59.281 L 235.697,60.257 L 235.723,60.257 C 235.914,59.902 236.146,59.616 236.419,59.402 C 236.692,59.188 237.025,59.08 237.418,59.08 C 237.472,59.08 237.528,59.082 237.588,59.085 C 237.648,59.088 237.704,59.094 237.759,59.1 L 237.759,60.906 C 237.658,60.9 237.561,60.894 237.465,60.891 C 237.368,60.888 237.271,60.886 237.171,60.886 C 237.008,60.886 236.843,60.909 236.679,60.954 C 236.515,61 236.365,61.075 236.228,61.18 C 236.091,61.284 235.983,61.421 235.9,61.59 C 235.818,61.758 235.778,61.965 235.778,62.212 L 235.778,66.626 L 233.891,66.626 L 233.891,59.281 L 235.697,59.281 L 235.697,59.281 z "
   id="path25"
   style="fill:#bb6a3c" />
		<path
   d="M 238.455,60.565 L 238.455,59.28 L 239.411,59.28 L 239.411,58.443 C 239.411,58.113 239.457,57.834 239.548,57.605 C 239.64,57.376 239.769,57.193 239.938,57.056 C 240.107,56.919 240.314,56.821 240.56,56.761 C 240.806,56.701 241.08,56.672 241.38,56.672 C 241.717,56.672 242.055,56.686 242.392,56.712 L 242.392,58.05 C 242.346,58.041 242.283,58.036 242.201,58.036 L 242.023,58.036 C 241.758,58.036 241.572,58.082 241.462,58.174 C 241.352,58.266 241.298,58.418 241.298,58.63 L 241.298,59.28 L 242.392,59.28 L 242.392,60.565 L 241.298,60.565 L 241.298,66.626 L 239.411,66.626 L 239.411,60.565 L 238.455,60.565 z "
   id="path27"
   style="fill:#bb6a3c" />
		<path
   d="M 243.219,61.278 C 243.32,60.796 243.484,60.393 243.711,60.07 C 243.94,59.747 244.238,59.501 244.607,59.333 C 244.977,59.165 245.431,59.08 245.969,59.08 C 246.533,59.071 247.004,59.146 247.378,59.305 C 247.751,59.464 248.047,59.708 248.267,60.035 C 248.486,60.363 248.641,60.768 248.732,61.25 C 248.823,61.732 248.869,62.297 248.869,62.942 C 248.869,63.57 248.819,64.126 248.719,64.608 C 248.619,65.09 248.454,65.493 248.227,65.816 C 247.998,66.139 247.7,66.379 247.331,66.533 C 246.962,66.688 246.509,66.765 245.971,66.765 C 245.405,66.774 244.935,66.703 244.562,66.553 C 244.188,66.403 243.892,66.166 243.672,65.844 C 243.453,65.521 243.298,65.116 243.207,64.629 C 243.116,64.142 243.07,63.58 243.07,62.942 C 243.068,62.316 243.118,61.761 243.219,61.278 z M 244.981,63.98 C 245.001,64.298 245.044,64.571 245.112,64.798 C 245.18,65.026 245.283,65.203 245.421,65.33 C 245.558,65.457 245.74,65.521 245.969,65.521 C 246.352,65.521 246.616,65.321 246.763,64.921 C 246.909,64.521 246.982,63.861 246.982,62.942 C 246.982,62.023 246.909,61.364 246.763,60.963 C 246.617,60.563 246.352,60.362 245.969,60.362 C 245.74,60.362 245.558,60.426 245.421,60.553 C 245.283,60.68 245.181,60.858 245.112,61.085 C 245.044,61.313 245.001,61.585 244.981,61.904 C 244.963,62.222 244.955,62.568 244.955,62.941 C 244.955,63.314 244.964,63.662 244.981,63.98 z "
   id="path29"
   style="fill:#bb6a3c" />
		<path
   d="M 251.677,59.281 L 251.677,60.257 L 251.703,60.257 C 251.894,59.902 252.126,59.616 252.399,59.402 C 252.672,59.188 253.005,59.08 253.396,59.08 C 253.452,59.08 253.508,59.082 253.567,59.085 C 253.627,59.088 253.683,59.094 253.738,59.1 L 253.738,60.906 C 253.638,60.9 253.54,60.894 253.444,60.891 C 253.349,60.888 253.251,60.886 253.151,60.886 C 252.986,60.886 252.823,60.909 252.659,60.954 C 252.495,61 252.345,61.075 252.208,61.18 C 252.071,61.284 251.962,61.421 251.88,61.59 C 251.798,61.758 251.757,61.965 251.757,62.212 L 251.757,66.626 L 249.87,66.626 L 249.87,59.281 L 251.677,59.281 L 251.677,59.281 z "
   id="path31"
   style="fill:#bb6a3c" />
		<path
   d="M 256.5,59.281 L 256.5,60.021 L 256.521,60.021 C 256.759,59.685 257.027,59.444 257.324,59.299 C 257.622,59.153 257.976,59.081 258.388,59.081 C 258.826,59.081 259.192,59.181 259.49,59.381 C 259.786,59.581 259.984,59.872 260.085,60.254 L 260.114,60.254 C 260.26,59.863 260.496,59.57 260.821,59.375 C 261.145,59.18 261.532,59.082 261.98,59.082 C 262.607,59.082 263.068,59.271 263.363,59.649 C 263.659,60.027 263.806,60.572 263.806,61.283 L 263.806,66.628 L 261.919,66.628 L 261.919,61.484 C 261.919,61.174 261.862,60.937 261.748,60.773 C 261.634,60.609 261.444,60.527 261.18,60.527 C 260.878,60.527 260.639,60.628 260.461,60.828 C 260.282,61.029 260.193,61.348 260.193,61.785 L 260.193,66.628 L 258.306,66.628 L 258.306,61.484 C 258.306,61.174 258.249,60.937 258.135,60.773 C 258.021,60.609 257.831,60.527 257.567,60.527 C 257.265,60.527 257.026,60.628 256.848,60.828 C 256.669,61.029 256.58,61.348 256.58,61.785 L 256.58,66.628 L 254.693,66.628 L 254.693,59.283 L 256.5,59.283 L 256.5,59.281 z "
   id="path33"
   style="fill:#bb6a3c" />
	</g>
	<g
   id="g35">
		<path
   d="M 35.232,0 L 34.666,0.566 L 0,35.231 L 10.306,45.537 L 11.438,44.405 C 6.487,39.452 2.633,35.6 2.265,35.231 C 3.34,34.154 34.156,3.34 35.232,2.263 C 36.308,3.34 67.125,34.154 68.201,35.231 C 67.832,35.6 63.96,39.471 58.99,44.443 L 60.122,45.574 L 70.465,35.231 L 35.232,0 z "
   id="path37"
   style="fill:#bb6a3c" />
		<polygon
   points="41.611,35.28 30.828,24.518 41.663,13.717 35.232,7.266 7.267,35.231 35.232,63.196 41.69,56.74 30.939,45.987 41.611,35.28 "
   id="polygon39"
   style="fill:#bb6a3c" />
		<polygon
   points="43.193,33.626 52.376,24.426 43.307,15.355 34.124,24.557 43.193,33.626 "
   id="polygon41"
   style="fill:#bb6a3c" />
		<polygon
   points="54.014,44.446 63.197,35.245 54.127,26.177 44.944,35.377 54.014,44.446 "
   id="polygon43"
   style="fill:#bb6a3c" />
		<polygon
   points="43.438,55.112 52.383,46.115 43.313,37.045 34.369,46.042 43.438,55.112 "
   id="polygon45"
   style="fill:#bb6a3c" />
	</g>
	<g
   id="g47">
		<path
   d="M 83.111,18.864 L 83.111,42.937 L 92.921,42.937 L 92.921,49.451 L 75.161,49.451 L 75.161,18.864 L 83.111,18.864 z "
   id="path49"
   style="fill:#bbb1a6" />
		<path
   d="M 107.819,18.864 L 107.819,49.451 L 99.868,49.451 L 99.868,18.864 L 107.819,18.864 z "
   id="path51"
   style="fill:#bbb1a6" />
		<path
   d="M 125.323,18.864 L 130.452,37.714 L 130.564,37.714 L 130.564,18.864 L 138.017,18.864 L 138.017,49.451 L 129.281,49.451 L 123.968,30.56 L 123.882,30.56 L 123.882,49.451 L 116.428,49.451 L 116.428,18.864 L 125.323,18.864 z "
   id="path53"
   style="fill:#bbb1a6" />
		<path
   d="M 161.987,18.864 L 169.441,49.451 L 160.957,49.451 L 160.144,44.095 L 153.803,44.095 L 152.989,49.451 L 144.636,49.451 L 151.962,18.864 L 161.987,18.864 z M 156.932,25.097 L 154.746,38.078 L 159.201,38.078 L 157.017,25.097 L 156.932,25.097 z "
   id="path55"
   style="fill:#bbb1a6" />
		<path
   d="M 187.361,18.864 L 190.568,36.986 L 190.654,36.986 L 193.863,18.864 L 205.242,18.864 L 205.242,49.451 L 197.788,49.451 L 197.788,26.661 L 197.703,26.661 L 193.473,49.452 L 187.748,49.452 L 183.52,26.661 L 183.435,26.661 L 183.435,49.452 L 175.981,49.452 L 175.981,18.864 L 187.361,18.864 z "
   id="path57"
   style="fill:#bbb1a6" />
		<path
   d="M 229.208,18.864 L 236.662,49.451 L 228.178,49.451 L 227.366,44.095 L 221.024,44.095 L 220.21,49.451 L 211.856,49.451 L 219.181,18.864 L 229.208,18.864 z M 224.151,25.097 L 221.966,38.078 L 226.421,38.078 L 224.237,25.097 L 224.151,25.097 z "
   id="path59"
   style="fill:#bbb1a6" />
		<path
   d="M 255.602,18.864 C 257.115,18.864 258.409,19.065 259.478,19.465 C 260.552,19.864 261.422,20.427 262.094,21.156 C 262.764,21.883 263.248,22.746 263.549,23.745 C 263.85,24.744 263.999,25.829 263.999,26.997 C 263.999,29.052 263.585,30.707 262.759,31.961 C 261.932,33.217 260.608,33.991 258.782,34.274 L 258.782,34.359 C 260.689,34.532 261.999,35.201 262.712,36.374 C 263.423,37.546 263.779,39.16 263.779,41.218 L 263.779,43.834 C 263.779,44.235 263.779,44.649 263.779,45.076 C 263.779,45.505 263.792,45.913 263.822,46.297 C 263.849,46.684 263.893,47.035 263.951,47.35 C 264.008,47.663 264.077,47.906 264.166,48.078 C 264.279,48.25 264.395,48.416 264.507,48.571 C 264.621,48.729 264.807,48.877 265.065,49.022 L 265.065,49.451 L 256.599,49.451 C 256.398,49.052 256.249,48.581 256.152,48.037 C 256.049,47.493 255.98,46.952 255.938,46.408 C 255.893,45.866 255.864,45.345 255.851,44.845 C 255.834,44.343 255.83,43.936 255.83,43.624 L 255.83,41.567 C 255.83,40.709 255.787,39.995 255.7,39.423 C 255.613,38.854 255.465,38.402 255.247,38.073 C 255.032,37.745 254.759,37.515 254.427,37.389 C 254.096,37.261 253.685,37.194 253.198,37.194 L 251.083,37.194 L 251.083,49.451 L 243.133,49.451 L 243.133,18.864 L 255.602,18.864 z M 252.68,31.785 C 253.832,31.785 254.682,31.448 255.232,30.78 C 255.777,30.112 256.049,29.236 256.049,28.153 C 256.049,26.871 255.783,25.961 255.25,25.421 C 254.718,24.879 253.846,24.609 252.638,24.609 L 251.081,24.609 L 251.081,31.785 L 252.68,31.785 z "
   id="path61"
   style="fill:#bbb1a6" />
	</g>
</g>
</svg>