<?xml version="1.0" encoding="utf-8"?>
<!-- Generator: Adobe Illustrator 19.2.1, SVG Export Plug-In . SVG Version: 6.00 Build 0)  -->
<svg version="1.1" id="layer" xmlns="http://www.w3.org/2000/svg" xmlns:xlink="http://www.w3.org/1999/xlink" x="0px" y="0px"
	 viewBox="0 0 652 652" style="enable-background:new 0 0 652 652;" xml:space="preserve">
<style type="text/css">
	.st0{fill:#FFFFFF;}
	.st1{fill:none;stroke:#1D1D1B;stroke-width:2.5181;}
	.st2{fill:#1D1D1B;}
	.st3{fill:#EA5B0C;}
</style>
<rect x="332.8" y="237.8" class="st0" width="288.2" height="166.1"/>
<rect x="332.8" y="237.8" class="st1" width="288.2" height="166.1"/>
<rect x="21.1" y="236.5" class="st2" width="290.7" height="168.6"/>
<path class="st0" d="M56.4,277.2h12.4c2-0.2,4.1,0.4,5.6,1.7c1.5,1.6,2.2,3.7,2.1,5.8c0.1,2.2-0.6,4.3-1.9,6.1
	c-1.8,2.1-3.9,2.1-7,2.1H56.4V277.2z M68,298.2c2.2,0.1,4.3-0.1,6.4-0.7c5.3-1.9,7.4-7.7,7.4-12.7c0-5-2.2-10.3-6.9-12.2
	c-2.1-0.6-4.2-0.9-6.4-0.8H51.2v45.5h5.2v-19.2L68,298.2z M96.3,271.9h5.4v45.6h-5.4V271.9z M143.8,296.8v-5.4h-19.6v-14.1h22.5
	v-5.4H119v45.6h28.4v-5.3h-23.2v-15.5H143.8z M166.5,277h10.4c3.1,0,5.7,0,7.8,1.9c1.6,1.7,2.5,4,2.4,6.4c0.4,3.4-1.8,6.5-5,7.4
	c-1.6,0.4-3.3,0.5-4.9,0.5h-10.6L166.5,277z M176.8,298.2l10.9,19.4h6.4l-11.3-19.8c1.9-0.4,9.5-1.9,9.5-12.5
	c0.2-4-1.3-7.8-4.2-10.6c-3.1-2.7-6.4-2.7-12-2.8h-14.9v45.5h5.2v-19.4L176.8,298.2z M232.7,296.8v-5.4h-19.6v-14.1h22.5v-5.4h-27.7
	v45.6h28.4v-5.3h-23.2v-15.5H232.7z M255.3,277h10.3c3.1,0,5.7,0,7.8,1.9c1.6,1.7,2.5,4,2.4,6.4c0.4,3.4-1.8,6.5-5,7.4
	c-1.6,0.4-3.3,0.5-4.9,0.5h-10.6V277z M265.6,298.2l10.9,19.4h6.4l-11.3-19.8c1.9-0.4,9.5-1.9,9.5-12.5c0.2-4-1.3-7.8-4.2-10.6
	c-3.1-2.7-6.4-2.7-12-2.8h-14.8v45.5h5.2v-19.4L265.6,298.2z"/>
<path class="st2" d="M502.2,306.7v3.3h5c0,2.5-2,4.6-4.6,4.6c-0.1,0-0.2,0-0.3,0c-3.3,0-5.7-2.5-5.7-6.9c0-3.9,1.8-7.2,5.6-7.2
	c2.3,0,4.3,1.7,4.8,3.9l3.5-1.4c-1.2-3.6-4.6-5.9-8.4-5.9c-5.5,0-9.6,4.4-9.6,10.6c0,5.4,3.3,10.3,9.4,10.3c2.1,0,4-0.8,5.4-2.3v1.7
	h3.2v-10.9L502.2,306.7z M478.8,310.4l2.8-9.2l2.7,9.2H478.8z M486.5,317.6h4l-6.9-19.9h-4.2l-6.7,19.8h4l1.1-3.9h7.5L486.5,317.6z
	 M459,303.5l-2.9,10.5l-3.1-10.5h-3.6l5.1,14.4c-0.1,0.5-0.4,0.9-0.8,1.1c-0.5,0.3-1,0.4-1.5,0.4c-0.3,0-0.6,0-0.9,0v3
	c0.7,0.1,1.4,0.2,2,0.2c2.6,0,3.7-1.1,4.6-4l0.8-2.6l3.6-12.3L459,303.5z M447.8,306v-2.4h-3.1v-5h-3.4v5h-2v2.4h2v7.2
	c-0.1,1,0,1.9,0.2,2.9c0.7,1.7,3,1.7,3.7,1.7c0.8,0,1.6-0.1,2.4-0.2v-2.8c-0.5,0.1-0.9,0.2-1.4,0.2c-1.6,0-1.6-0.8-1.6-2.5V306
	H447.8z M432.9,317.5h3.3v-14.1h-3.3V317.5z M432.9,301.2h3.3v-3.4h-3.3V301.2z M424.7,317.5h3.4v-19.9h-3.4V317.5z M416.5,317.5
	h3.3v-14.1h-3.3V317.5z M416.5,301.2h3.3v-3.4h-3.3V301.2z M409,310.4c0,1.9-0.9,4.3-3.4,4.3c-1.6,0-2.9-1.1-3.2-2.7
	c-0.2-0.6-0.2-1.2-0.2-1.8c0-3,1.8-4.2,3.3-4.2c2.1,0.1,3.6,1.9,3.5,3.9C409.1,310.1,409.1,310.2,409,310.4 M398.9,297.7v19.8h3.3
	V316c0.9,1.2,2.4,1.9,3.9,1.9c3.8-0.2,6.7-3.5,6.4-7.3c0-0.1,0-0.2,0-0.2c0.3-3.7-2.4-7-6.2-7.4c-1.5,0-3,0.6-4.1,1.6v-7
	L398.9,297.7z M391.5,310.4c0.4,2.1-1,4.1-3.1,4.4c-0.2,0-0.3,0-0.5,0.1c-2.2-0.1-3.9-2-3.8-4.2c0-0.1,0-0.3,0-0.4
	c-0.3-2.1,1.2-4,3.3-4.3c0.1,0,0.2,0,0.4,0c2.2,0.1,3.9,1.9,3.8,4.1C391.5,310.2,391.5,310.3,391.5,310.4 M395,310.4
	c-0.2-4-3.5-7.1-7.5-7c-4,0.2-7.1,3.5-7,7.5c0.1,3.9,3.4,7,7.3,7c3.9,0,7.1-3.1,7.2-7C395,310.7,395,310.5,395,310.4 M370.8,297.6
	l-3.8,14.8l-3.9-14.8h-5.4v19.9h3.6l-0.4-16.3l4.3,16.3h3.3l4.3-16.3l-0.3,16.3h3.6v-19.9L370.8,297.6z"/>
<rect x="519.4" y="298.8" class="st3" width="18.8" height="18.8"/>
</svg>
