<?xml version="1.0" encoding="utf-8"?>
<!-- Generator: Adobe Illustrator 19.0.0, SVG Export Plug-In . SVG Version: 6.00 Build 0)  -->
<svg version="1.1" id="layer" xmlns="http://www.w3.org/2000/svg" xmlns:xlink="http://www.w3.org/1999/xlink" x="0px" y="0px"
	 viewBox="-153 -46 652 652" style="enable-background:new -153 -46 652 652;" xml:space="preserve">
<style type="text/css">
	.st0{clip-path:url(#SVGID_2_);fill:url(#SVGID_3_);}
	.st1{clip-path:url(#SVGID_7_);fill:url(#SVGID_8_);}
	.st2{fill:#000101;}
	.st3{fill:#CF0A2C;}
	.st4{fill:#A7A9AC;}
</style>
<g>
	<defs>
		<rect id="SVGID_1_" x="-124.1" y="212.3" width="128.3" height="126.4"/>
	</defs>
	<clipPath id="SVGID_2_">
		<use xlink:href="#SVGID_1_"  style="overflow:visible;"/>
	</clipPath>
	
		<linearGradient id="SVGID_3_" gradientUnits="userSpaceOnUse" x1="-133.105" y1="686.4697" x2="-128.8507" y2="686.4697" gradientTransform="matrix(-32.7165 -32.7165 -32.7165 32.7165 18115.9199 -26466.4219)">
		<stop  offset="0" style="stop-color:#919396"/>
		<stop  offset="0.4505" style="stop-color:#B6B8BA"/>
		<stop  offset="0.5644" style="stop-color:#B1B3B5"/>
		<stop  offset="0.7017" style="stop-color:#A2A4A6"/>
		<stop  offset="0.8508" style="stop-color:#8A8C8E"/>
		<stop  offset="1" style="stop-color:#6B6C6F"/>
	</linearGradient>
	<polygon class="st0" points="-59.9,402.8 -187.3,275.5 -59.9,148.1 67.4,275.5 	"/>
</g>
<g>
	<defs>
		<rect id="SVGID_4_" x="-122.9" y="213.5" width="125.9" height="125.2"/>
	</defs>
	<clipPath id="SVGID_5_">
		<use xlink:href="#SVGID_4_"  style="overflow:visible;"/>
	</clipPath>
</g>
<g>
	<defs>
		<rect id="SVGID_6_" x="-118.4" y="218.1" width="116.8" height="116.8"/>
	</defs>
	<clipPath id="SVGID_7_">
		<use xlink:href="#SVGID_6_"  style="overflow:visible;"/>
	</clipPath>
	
		<linearGradient id="SVGID_8_" gradientUnits="userSpaceOnUse" x1="-133.2249" y1="688.0256" x2="-128.9706" y2="688.0256" gradientTransform="matrix(-28.6422 -28.6422 -28.6422 28.6422 15900.5527 -23176.1055)">
		<stop  offset="0" style="stop-color:#B8BABC"/>
		<stop  offset="0.456" style="stop-color:#A9ABAE"/>
		<stop  offset="0.55" style="stop-color:#9B9D9F"/>
		<stop  offset="0.73" style="stop-color:#757679"/>
		<stop  offset="0.9756" style="stop-color:#39393B"/>
		<stop  offset="1" style="stop-color:#333334"/>
	</linearGradient>
	<polygon class="st1" points="-59.9,393.4 -176.8,276.5 -59.9,159.7 56.9,276.5 	"/>
</g>
<rect x="-116.9" y="219.5" class="st2" width="114" height="114"/>
<path class="st3" d="M-65.7,222.3v0.1c9.7,2.4,34.8,10.5,34.8,30.9c0,25.3-31.2,32.6-31.2,32.6l38.6,44.8h17.4V222.3H-65.7z"/>
<path class="st2" d="M74.6,259h-7.1v-17.2h7.1c6.3,0,11.5,3.3,11.5,8.6C86,255.8,80.9,259,74.6,259 M42.7,228.2v69.7h24.8v-26.3
	l23.1,26.3h31.1l-29.8-28.7c5,0,20.4-3.4,20.4-20.3c0-16.8-18.9-20.7-32.1-20.7H42.7z"/>
<path class="st2" d="M165.1,243.7c-13.4,0-24.3,8.6-24.3,19.3c0,10.7,10.9,19.3,24.3,19.3c13.4,0,24.3-8.6,24.3-19.3
	C189.4,252.4,178.5,243.7,165.1,243.7 M214.6,263.1c0,20.7-22.1,37.4-49.4,37.4c-27.3,0-49.5-16.8-49.5-37.4
	c0-20.7,22.1-37.4,49.5-37.4C192.4,225.6,214.6,242.4,214.6,263.1"/>
<path class="st2" d="M259.4,299.7c35,0,40.6-17,40.6-25.1v-46.4h-23.9v39.2c0,9.9-4.5,15.9-16.7,15.9c-12.2,0-16.7-6-16.7-15.9
	v-39.2h-23.9v46.4C218.7,282.7,224.4,299.7,259.4,299.7"/>
<path class="st2" d="M371.3,273.2c0-22.9-40-15.8-40-26.4c0-3.6,6-5.4,10.2-5.4c4.2,0,11.8,1.7,16,4.6l9.9-14.1
	c-2.7-1.6-12.6-5.5-29.6-5.5c-22.5,0-32.7,11.6-32.7,22.9c0,12.2,9.6,16.6,23.9,18.9c14.3,2.3,16.3,5.6,16.3,9
	c0,3.1-5.2,5.9-12.3,5.9c-7.1,0-16.2-4-21-7.3l-10.3,14.5c12.8,7.5,21.6,8.2,33,8.2C346.3,298.6,371.3,296.7,371.3,273.2"/>
<polygon class="st2" points="434.7,228.2 434.7,254.7 400.3,254.7 400.3,228.2 376.1,228.2 376.1,297.9 400.3,297.9 400.3,269.2 
	434.7,269.2 434.7,297.9 458.9,297.9 458.9,228.2 "/>
<path class="st2" d="M470.4,291.2c0.7,0,2,0.1,2-0.8c0-0.6-0.8-0.7-1.4-0.7h-1.5v1.5H470.4z M473.1,294.7h-1l-1.7-2.7h-1v2.7h-0.8
	v-5.8h2.5c1.1,0,2.1,0.3,2.1,1.5c0,1.1-0.8,1.6-1.8,1.6L473.1,294.7z M475.1,291.9c0-2.5-2.1-4.5-4.5-4.5c-2.5,0-4.5,2-4.5,4.5
	c0,2.5,2.1,4.5,4.5,4.5C473,296.4,475.1,294.4,475.1,291.9 M465.2,291.9c0-3,2.4-5.3,5.4-5.3c3,0,5.3,2.4,5.3,5.3
	c0,3-2.4,5.3-5.3,5.3C467.6,297.2,465.2,294.8,465.2,291.9"/>
<path class="st4" d="M47.3,320.6c0.5,0.1,1.2,0.2,2,0.2c3,0,4.7-1.3,4.7-3.5c0-2.2-1.8-3.2-4.5-3.2c-1.1,0-1.9,0.1-2.3,0.2V320.6z
	 M44.9,312.6c1.2-0.2,2.7-0.3,4.7-0.3c2.4,0,4.2,0.5,5.3,1.4c1,0.8,1.7,2,1.7,3.4c0,1.5-0.5,2.7-1.5,3.5c-1.3,1.2-3.4,1.8-5.8,1.8
	c-0.7,0-1.4,0-2-0.1v6.6h-2.4V312.6z"/>
<polygon class="st4" points="93.2,321.2 85.9,321.2 85.9,327.1 94.1,327.1 94.1,328.9 83.4,328.9 83.4,312.4 93.7,312.4 93.7,314.2 
	85.9,314.2 85.9,319.4 93.2,319.4 "/>
<path class="st4" d="M123.3,320.2h2.5c2.6,0,4.3-1.3,4.3-3.1c0-2.1-1.8-3.1-4.3-3.1c-1.2,0-2,0.1-2.4,0.2V320.2z M120.9,312.7
	c1.2-0.2,3-0.3,4.7-0.3c2.6,0,4.3,0.4,5.5,1.3c0.9,0.7,1.5,1.9,1.5,3.2c0,2.1-1.6,3.6-3.5,4.2v0.1c1.4,0.4,2.3,1.6,2.8,3.3
	c0.6,2.3,1.1,3.9,1.5,4.5h-2.5c-0.3-0.5-0.7-1.9-1.2-3.9c-0.6-2.3-1.6-3.1-3.8-3.2h-2.3v7.1h-2.4V312.7z"/>
<polygon class="st4" points="159.6,312.4 169.8,312.4 169.8,314.2 162.1,314.2 162.1,319.7 169.2,319.7 169.2,321.5 162.1,321.5 
	162.1,328.9 159.6,328.9 "/>
<path class="st4" d="M198.4,320.7c0,3.5,2.2,6.7,6.1,6.7c3.9,0,6.1-3.1,6.1-6.8c0-3.3-2-6.7-6-6.7
	C200.5,313.9,198.4,317.2,198.4,320.7 M213.1,320.5c0,5.6-4,8.7-8.8,8.7c-5,0-8.5-3.4-8.5-8.4c0-5.2,3.7-8.6,8.8-8.6
	C209.8,312.1,213.1,315.6,213.1,320.5"/>
<path class="st4" d="M242.4,320.2h2.5c2.6,0,4.3-1.3,4.3-3.1c0-2.1-1.8-3.1-4.4-3.1c-1.2,0-2,0.1-2.4,0.2V320.2z M240,312.7
	c1.2-0.2,3-0.3,4.7-0.3c2.6,0,4.3,0.4,5.5,1.3c0.9,0.7,1.5,1.9,1.5,3.2c0,2.1-1.6,3.6-3.5,4.2v0.1c1.4,0.4,2.3,1.6,2.8,3.3
	c0.6,2.3,1.1,3.9,1.5,4.5h-2.5c-0.3-0.5-0.7-1.9-1.2-3.9c-0.6-2.3-1.6-3.1-3.8-3.2h-2.3v7.1H240V312.7z"/>
<path class="st4" d="M294.7,321.7c-0.1-2.3-0.3-5.1-0.3-7.1h-0.1c-0.7,1.9-1.4,4-2.4,6.3l-3.3,8h-1.9l-3.1-7.8
	c-0.9-2.3-1.6-4.4-2.2-6.4h-0.1c-0.1,2.1-0.2,4.8-0.4,7.3l-0.5,7.1h-2.3l1.3-16.5h3.1l3.2,8c0.8,2,1.4,3.8,1.9,5.5h0.1
	c0.5-1.7,1.2-3.5,2-5.5l3.4-8h3.1l1.2,16.5h-2.4L294.7,321.7z"/>
<path class="st4" d="M334,322.1l-1.9-4.7c-0.4-1.1-0.7-2.1-1-3H331c-0.3,1-0.6,2-1,3l-1.9,4.8H334z M327.7,323.7l-2,5.2h-2.5
	l6.5-16.5h2.9l6.5,16.5h-2.6l-2-5.2H327.7z"/>
<path class="st4" d="M365.5,328.9v-16.5h2.7l6,8.3c1.4,1.9,2.5,3.7,3.4,5.3l0.1,0c-0.2-2.2-0.3-4.2-0.3-6.8v-6.9h2.3v16.5h-2.5
	l-6-8.3c-1.3-1.8-2.6-3.7-3.5-5.5l-0.1,0c0.1,2.1,0.2,4.1,0.2,6.8v7H365.5z"/>
<path class="st4" d="M420.8,328.4c-0.9,0.4-2.7,0.8-5,0.8c-5.3,0-9.3-2.9-9.3-8.4c0-5.2,4-8.6,9.9-8.6c2.3,0,3.9,0.4,4.5,0.7
	l-0.6,1.7c-0.9-0.4-2.2-0.7-3.8-0.7c-4.4,0-7.4,2.5-7.4,6.8c0,4.1,2.7,6.6,7.2,6.6c1.5,0,3-0.3,4-0.7L420.8,328.4z"/>
<polygon class="st4" points="457.3,321.2 450,321.2 450,327.1 458.2,327.1 458.2,328.9 447.5,328.9 447.5,312.4 457.8,312.4 
	457.8,314.2 450,314.2 450,319.4 457.3,319.4 "/>
</svg>
