<svg xmlns="http://www.w3.org/2000/svg" viewBox="0 0 800 400">
  <path fill="#002868" d="M200,100 C250,80 300,100 350,150 C300,120 250,140 200,100 Z"/>
  <path fill="#002868" d="M200,100 C220,120 240,130 260,135 L240,115 L220,105 Z"/>
  <path fill="#002868" d="M240,115 L260,135 L280,145 L260,125 Z"/>
  <circle fill="#FFFFFF" cx="220" cy="110" r="3"/>
  <circle fill="#FFFFFF" cx="235" cy="115" r="3"/>
  <circle fill="#FFFFFF" cx="250" cy="120" r="3"/>
  <path fill="#BF0A30" d="M350,150 C400,200 450,220 500,200 C450,180 400,160 350,150 Z"/>
  <path fill="#BF0A30" d="M400,160 C420,180 440,190 460,195 L440,175 L420,165 Z"/>
  <path fill="#BF0A30" d="M440,175 L460,195 L480,205 L460,185 Z"/>
</svg>